<svg id="Laag_1" data-name="Laag 1" xmlns="http://www.w3.org/2000/svg" viewBox="0 0 192 192"><defs><style>.cls-1{fill:#fff;}</style></defs><title>Tekengebied 2</title><path class="cls-1" d="M129.51,31.1,98.28,41.71a10.73,10.73,0,0,1-10.51-2.09l-2.3-2A10.71,10.71,0,0,0,75,35.51L28.21,51.37a10.75,10.75,0,0,0-7.06,8.06l-9.63,48.42A10.71,10.71,0,0,0,15,118l37.12,32.55a10.7,10.7,0,0,0,10.51,2.09L93.82,142a10.73,10.73,0,0,1,10.51,2.09l2.3,2a10.73,10.73,0,0,0,10.51,2.09l46.75-15.87a10.72,10.72,0,0,0,7.06-8.05l9.63-48.42a10.71,10.71,0,0,0-3.44-10.15L140,33.19A10.73,10.73,0,0,0,129.51,31.1Zm-77.31,76a15,15,0,1,1,15-15A15,15,0,0,1,52.2,107.1Zm44.18,0a15,15,0,1,1,15-15A15,15,0,0,1,96.38,107.1Zm44,0a15,15,0,1,1,15-15A15,15,0,0,1,140.41,107.1Z"/><path class="cls-1" d="M123.08,151.56l18.35,8.58a11.5,11.5,0,0,0,15.28-5.55l8.57-18.35c.12-.26.22-.52.32-.78l-44.32,15A11.5,11.5,0,0,0,123.08,151.56Z"/></svg>